<?xml version="1.0" encoding="UTF-8" standalone="no"?>
<!-- Created with Inkscape (http://www.inkscape.org/) -->
<svg xmlns:rdf="http://www.w3.org/1999/02/22-rdf-syntax-ns#" xmlns="http://www.w3.org/2000/svg" height="99.796" width="65.981" version="1.1" xmlns:cc="http://creativecommons.org/ns#" xmlns:dc="http://purl.org/dc/elements/1.1/">
 <metadata>
  <rdf:RDF>
   <cc:Work rdf:about="">
    <dc:format>image/svg+xml</dc:format>
    <dc:type rdf:resource="http://purl.org/dc/dcmitype/StillImage"/>
    <dc:title/>
   </cc:Work>
  </rdf:RDF>
 </metadata>
 <g stroke="#FFF" transform="matrix(0.30676825,0,0,0.30676825,-2.2153968,-1.265419)" fill="#000">
  <g class="face">
   <path d="m14.899,181.15c4.5151,2.007,9.3302,2.8142,14.778,1.0913,6.8981-23.615-11.505-38.545,5.94-67.581,2.8138,30.035,37.491,48.864,66.554,63.416s55.833,33.88,60.885,60.709c5.0523,26.829,1.3176,52.284-15.524,90.441-0.0389-25.759-6.1944-44.574-23.502-50.731-31.707-6.2292-53.176,10.013-93.442,8.1804-5.3117-2.3782-7.6996-5.6132-5.067-12.197,5.5362-6.7347,0.65919-13.645-3.8627-20.379,4.4329-4.4396,8.6905-5.3093,13.123-5.3907-9.1236-1.9273-14.392-3.7958-15.059-9.1199,9.7347-3.4804,4.3986-12.116-1.9655-12.733-5.8421-0.56713-10.618-4.0785-9.9826-5.2317,6.3326-11.51,17.127-17.28,23.945-33.74-12.822,0.53-15.755-3.74-16.819-6.74z"/>
  </g>
  <g class="hair">
   <path stroke-linejoin="miter" stroke-linecap="butt" d="m50.835,30.057c6.372,34.72,17.16,57.113,74.654,88.205,41.882,22.649,74.458,48.184,70.821,99.375-2.4013-21.102-1.9019-39.979-71.092-79.054-81.485-43.122-82.688-75.007-74.385-108.53z" stroke-width="1px"/>
   <path d="m189.36,258.89c0,3.9296-2.4192,7.1152-5.4035,7.1152s-5.4035-3.1856-5.4035-7.1152,2.4192-7.1152,5.4035-7.1152,5.4035,3.1856,5.4035,7.1152z" transform="translate(3.041643,3.9813801)"/>
   <path stroke-linejoin="miter" stroke-linecap="butt" d="m69.059,4.249c6.372,34.72,13.961,54.048,73.717,86.8,33.757,18.502,73.68,46.307,71.757,100.78-1.3495-17.731-1.9019-39.979-71.092-79.054-88.513-46.162-82.694-75.005-74.391-108.53z" stroke-width="1px"/>
   <path d="m203.05,231.24c0,3.5959-2.4042,6.511-5.3699,6.511s-5.3699-2.9151-5.3699-6.511c0-3.596,2.4042-6.511,5.3699-6.511s5.3699,2.9151,5.3699,6.511z" transform="translate(3.3101394,3.3101392)"/>
   <path stroke-linejoin="miter" stroke-linecap="butt" d="m39.598,61.254c6.372,34.72,13.181,55.006,77.462,88.907,42.116,22.211,72.04,57.546,68.949,100.31-0.52885-15.719-1.9019-39.979-71.092-79.054-78.912-38.9-83.626-76.641-75.322-110.17z" stroke-width="1px"/>
   <path d="m218.09,204.39c0,5.7832-3.9669,10.471-8.8604,10.471-4.8934,0-8.8604-4.6882-8.8604-10.471,0-5.7832,3.9669-10.471,8.8604-10.471,4.8934,0,8.8604,4.6882,8.8604,10.471z" transform="translate(3.712884,3.847132)"/>
  </g>
 </g>
</svg>
