<?xml version="1.0" encoding="UTF-8" standalone="no"?>
<!-- Created with Inkscape (http://www.inkscape.org/) -->
<svg xmlns:rdf="http://www.w3.org/1999/02/22-rdf-syntax-ns#" xmlns="http://www.w3.org/2000/svg" height="100" width="90.076" version="1.1" xmlns:cc="http://creativecommons.org/ns#" xmlns:dc="http://purl.org/dc/elements/1.1/">
 <metadata>
  <rdf:RDF>
   <cc:Work rdf:about="">
    <dc:format>image/svg+xml</dc:format>
    <dc:type rdf:resource="http://purl.org/dc/dcmitype/StillImage"/>
    <dc:title/>
   </cc:Work>
  </rdf:RDF>
 </metadata>
  <path fill="#000" d="m63.606,43.457c-10.764-1.1157-19.732-7.3697-24.301-16.926-3.5301-7.3837-3.945-15.969-1.124-23.258,0.47917-1.238,0.51675-1.2852,1.3893-1.7454,2.2811-1.2028,4.7128-1.7316,6.695-1.4559,2.498,0.3475,3.2955,0.71321,9.8632,4.5232,2.1534,1.2492,4.7963,2.7788,5.873,3.3992,1.0767,0.62031,2.9091,1.6759,4.072,2.3457,1.1628,0.66982,4.3343,2.5047,7.0476,4.0774,2.7133,1.5728,6.3076,3.6521,7.9873,4.6207,4.1154,2.3732,4.6019,2.7031,5.874,3.9833,1.8159,1.8275,2.8107,4.2382,3.0075,7.2883l0.0861,1.3347-0.67171,0.86152c-0.91129,1.1688-3.2653,3.4897-4.6778,4.6121-3.0142,2.395-6.8685,4.349-10.512,5.3289-3.3974,0.91379-7.7054,1.3287-10.62,1.0229zm-48.981-27.574-4.6984,2.6874c-4.9354,2.8262-6.5657,3.9327-7.5762,5.1398-0.72299,0.86368-1.4594,2.2767-1.806,3.4608-0.53429,1.8258-0.58109,3.9898-0.52857,24.289l0.0489,19.972,0.35727,1.2336c0.6528,2.2606,1.5636,3.6877,3.2008,5.0272,0.45224,0.36998,2.9013,1.8724,5.4423,3.3335,2.5411,1.4611,6.5582,3.7678,8.927,5.13s5.0469,2.8974,5.9513,3.4118c0.90445,0.51445,2.2787,1.3055,3.054,1.7573,1.7276,1.0069,8.3546,4.819,10.493,6.0356,2.8183,1.6033,4.4593,2.316,5.873,2.5503,0.21535,0.0357,1.0093,0.0764,1.7668,0.0881,2.499,0.0387,4.1693-0.58121,8.8829-3.2992,2.6362-1.5201,3.4028-1.9641,12.842-7.4306,2.9718-1.721,8.2058-4.7489,11.633-6.7258,3.4458-1.9873,6.7857-4.0255,7.4685-4.5622,1.8904-1.4857,2.9551-3.0938,3.6217-5.4677,0.25304-1.157,0.27827-1.6306,0.33927-7.1516,0.0359-3.2522,0.0371-5.9132,0-5.9132,0.0347,0-1.2196,0.5921-2.7178,1.3168-6.6921,3.2369-10.766,4.599-18.387,6.1432-3.8943,0.78909-6.3832,1.4186-7.9873,2.0216-6.2746,2.3588-12.889,6.9558-23.056,16.026-1.6562,1.4775-3.1186,2.6874-3.2497,2.6874-0.31407,0-0.30694-0.17499,0.14193-2.8293,0.77248-4.568,0.93902-6.6444,0.94458-11.895,0.006-5.5058-0.13283-6.8475-1.0865-10.568-1.1642-4.542-3.3055-8.7171-6.7931-13.241-0.56455-0.7323-1.8698-2.424-2.8974-3.7594-4.679-6.0803-6.9656-10.407-8.4522-15.977-0.82212-3.0807-1.4934-7.582-1.5368-10.338-0.0102-0.64614-0.0629-1.6195-0.11746-2.1636l-0.0979-0.98879zm-12.553,18.233c0.0312-0.00078,0.0662,0.0165,0.0979,0.0489,0.13717,0.14031,0.28983,1.5301,1.5759,14.083,0.34424,3.3599,0.83908,8.1531,1.0963,10.652,0.25721,2.4984,0.54188,5.5294,0.63134,6.7356,0.40115,5.4082,1.2215,7.2112,4.2922,9.4082,0.47307,0.33847,1.7707,1.2864,2.8827,2.1048,1.1119,0.81845,4.9979,3.6732,8.6333,6.344,9.4664,6.9543,11.017,8.1211,11.085,8.3411,0.0335,0.10769-0.0399,0.1958-0.16151,0.1958s-6.0614-3.3306-13.2-7.4013c-11.606-6.6184-13.093-7.5117-14.081-8.4439-1.3258-1.2516-2.0398-2.3882-2.5792-4.102l-0.45013-1.2776-0.044-18.161c0.0193-9.989,0.0394-18.269,0.0881-18.395,0.0332-0.0867,0.08-0.13095,0.13201-0.13217z"/>
</svg>
