<?xml version="1.0" encoding="UTF-8" standalone="no"?>
<!-- Created with Inkscape (http://www.inkscape.org/) -->
<svg xmlns:rdf="http://www.w3.org/1999/02/22-rdf-syntax-ns#" xmlns="http://www.w3.org/2000/svg" xml:space="preserve" height="649.94" width="652.06" version="1.1" xmlns:cc="http://creativecommons.org/ns#" xmlns:dc="http://purl.org/dc/elements/1.1/"><path stroke-linejoin="miter" d="m15.132,421.8c14.854-3.6314,29.613-5.6921,43.762-8.6501,102.01-21.327,243.6,27.884,266.77,172.57l10.231,63.87,16.999-2.9974-23.111-131.07c-2.3691-53.831,5.1358-107.63,34.218-146.95l47.209,267.74,17.018-3.0007-14.108-80.013c-7.928-122.82,73.837-206.92,172.09-232.19l65.505-11.55-2.9973-16.999-264.3,46.604c39.197-38.211,67.36-55.914,124.87-73.374l130.65-23.037-3.0007-17.018-77.655,13.693c-139.32,9.27-219.23-106.15-227.78-154.66l-14.88-84.39-17.018,3.0007,22.134,130.05c8.7914,63.7-9.1799,106.59-33.232,148.02l-47.21-267.79-17,2.997,14,79.429c12.025,68.196-39.328,206.87-186.4,232.81l-51.544,9.0885,3.0007,17.018,265.34-46.787c-41.864,46.832-91.593,67.507-142.23,76.435l-114.33,20.16,2.9974,16.999zm130.57-109.45c56.554-36.147,93.174-87.429,103.78-149.04l23,126.69-126.78,22.355zm15.158,83.758,126.41-22.289,21.873,124.05c-33.042-50.613-90.088-91.133-148.28-101.76zm63.885-28.792c32.708-23.015,37.842-32.24,53.343-45.55l6.181,35.054-59.524,10.496zm92.235,75.614-12.715-72.108,43.091-7.5982c-20.705,30.748-29.731,72.503-30.377,79.706zm-15.712-89.107-8.7825-49.808,58.317-10.283,8.7825,49.808-58.317,10.283zm3.7974-69.923c20.705-30.748,29.731-72.503,30.377-79.706l12.715,72.108-43.091,7.5982zm69.434,44.716-6.3914-37.682,62.047-11.193c-34.424,22.657-45.283,36.47-55.655,48.876zm-9.4098-55.572-22.492-127.56c37.133,58.816,83.298,91.982,150.5,104.99l-128.01,22.572zm38.928,213.6-22.492-127.56,127.99-22.568c-58.704,35.204-90.722,82.156-105.5,150.13z" stroke-linecap="butt" stroke-width="0.61304528px"/></svg>
