<svg width="150" height="85" xmlns="http://www.w3.org/2000/svg"><path d="M338.83034845350113,75.8527066198985L339.16103076995387,75.68205994108115L339.4733418466036,75.46487325894998L339.82239540285923,75.27871324569469L340.18982019891786,75.27871324569469L340.37353259694714,75.41833325563618L340.66747243379393,75.80616661658468L340.85118483182316,75.9302732920882L341.05326846965545,75.96129996096408L341.1818671482759,75.91475995765026L341.29209458709346,75.83719328546056L342.1188003782252,75.55795326557765L342.3025127762545,75.5114132622638L342.412740215072,75.46487325894998L342.44948269467795,75.40281992119822L342.5045964140867,75.38730658676027L342.6331950927072,75.46487325894998L342.6883088121161,75.57346660001556L342.7434225315248,75.8527066198985L342.7985362509336,75.96129996096408L343.00061988876587,76.10091997090552L343.20270352659793,76.11643330534352L343.42315840423305,76.10091997090552L343.6619845216712,76.11643330534352L343.9008106391092,76.24053998084705L344.24986419536486,76.62837334179554L344.48869031280293,76.78350668617492L345.09494122629957,76.9541533649923L345.40725230294936,77.21788005043729L345.51747974176686,77.62122674582375L345.51747974176686,78.19522012002756L345.64607842038737,78.87780683529692L345.995131976643,79.35872020287306L347.51994488028595,80.50670695128065L347.7771422375269,80.61530029234623L348.0894533141767,80.61530029234623L348.4201356306295,80.49119361684274L348.9529015849144,80.2119535969598L349.3203263809729,80.18092692808395L351.65347383594474,80.81697364003949L351.3595339990979,81.45302035199506L351.3595339990979,82.22868707389208L351.6902163155506,82.8492204514097L352.351580948456,83.00435379578911L352.68226326490867,82.86473378584765L352.9027181425438,82.6940871070303L353.1599154997848,82.60100710040265L353.54571153564626,82.64754710371648L354.0049925307195,82.91127378916144L354.17033368894585,82.95781379247526L354.3173036073693,82.94230045803735L354.61124344421614,82.88024712028559L354.7582133626396,82.88024712028559L354.94192576066877,82.97332712691326L355.0888956790923,83.05089379910294L355.658404112983,83.64040050774466L355.97071518963276,83.85758718987583L356.28302626628255,83.96618053094141L356.6320798225382,84.01272053425527L358.67128744066315,83.98169386537936L359.3142808337656,84.13682720975879L359.8837892676564,84.50914723626934L360.0491304258828,84.72633391840051L360.3614415025326,85.43994730254579L360.5818963801677,85.78124066018049L360.7839800179998,85.92086067012193L361.39023093149655,85.98291400787372L362.73133143711016,86.26215402775662L363.8519770650888,86.3552340343843L364.054060702921,86.46382737544988L364.2745155805561,86.696527392019L364.32962929996495,86.82063406752249L364.3847430193737,87.0533340840916L364.4765992183883,87.17744075959513L364.58682665720585,87.20846742847101L364.8623952542498,87.17744075959513L364.97262269306725,87.20846742847101L365.7074722851845,87.68938079604715L366.8832316325719,88.12375416030952L367.12205775000996,88.2788875046889L367.15880022961585,89.19417423652737L367.2322851888274,89.41136091865857L367.37925510725086,89.53546759416207L367.47111130626547,89.50444092528622L367.58133874508314,89.42687425309649L367.7650511431124,89.41136091865857L367.87527858192993,89.47341425641034L368.09573345956505,89.69060093854148L368.2427033779885,89.75265427629324L368.2427033779885,90.18702764055561L367.96713478094466,91.31950105452523L368.1508471789739,91.73836108434966L368.371302056609,91.81592775653937L368.5366432148354,91.73836108434966L368.72035561286464,91.61425440884614L368.9224392506969,91.56771440553231L369.10615164872604,91.64528107772199L369.1612653681349,91.81592775653937L369.19800784774077,92.00208776979463L369.27149280695244,92.14170777973612L369.6205463632082,92.28132778967756L369.7675162816315,91.98657443535669L369.82263000104035,91.52117440221849L369.91448620005485,91.11782770683203L370.2635397563105,91.28847438564938L371.1269880270481,91.3350143889632L371.439299103698,91.55220107109434L371.659753981333,91.94003443204286L371.7332389405449,92.15722111417406L371.7516101803477,92.38992113074315L371.7148677007418,92.5605678095605L371.6230115017273,92.68467448506402L371.5678977823185,92.83980782944343L371.6230115017273,93.07250784601254L371.76998142015054,93.28969452814371L372.1557774560122,93.53790787915074L372.3394898540414,93.70855455796809L372.5599447316765,94.14292792223046L372.68854341029703,94.32908793548572L372.8906270481293,94.49973461430307L373.07433944615855,94.59281462093074L373.66221911985224,94.81000130306185L373.75407531886685,94.93410797856544L374.01127267610786,95.55464135608301L374.1031288751225,95.98901472034538L373.9929014363049,96.31479474354211L373.53362044123173,97.04392146212533L373.23968060438483,97.77304818070851L373.1478244053701,98.17639487609497L373.1478244053701,98.57974157148143L373.3499080432024,98.87449492580228L374.63589482940733,99.43297496556815L374.96657714586013,99.71221498545111L375.22377450310114,99.99145500533402L375.499343100145,100.22415502190313L375.90351037580933,100.3637750318446L376.19745021265624,100.73609505835518L376.50976128930597,100.95328174048635L376.74858740674404,101.21700842593134L376.7669586465471,101.71343512794544L376.67510244753237,102.5821818564701L376.7302161669412,102.95450188298071L377.1527546824085,103.93184195257095L377.2813533610289,104.11800196582624L377.72226311629936,104.50583532677473L377.8324905551168,104.62994200227826L378.14480163176665,105.3435553864235L378.3836277492046,105.6227954063065L378.806166264672,105.66933540962029L378.82453750447485,106.08819543944469L378.9347649432924,106.3674354593276L378.9347649432924,106.522568803707L378.95313618309547,106.58462214145877L378.95313618309547,106.64667547921053L378.69593882585445,107.01899550572114L378.4571127084163,107.25169552229022L377.8324905551168,107.68606888655253L377.63040691728463,107.77914889318018L377.42832327945234,107.9032555686837L376.6567312077293,108.75648896277045L376.3995338504885,109.39253567472602L376.2341926922621,109.65626236017101L375.90351037580933,109.85793570786421L375.6646842583714,109.90447571117804L375.38911566132754,110.183715731061L375.18703202349525,110.27679573768859L374.94820590605707,110.26128240325068L374.4154399517722,110.15268906218506L374.1949850741371,110.19922906549891L373.9929014363049,110.27679573768859L373.58873416064057,110.35436240987832L373.36827928300545,110.43192908206805L373.1845668849761,110.60257576088537L372.8906270481293,111.03694912514771L372.65180093069125,111.17656913508915L372.4680885326619,111.17656913508915L372.3027473744355,111.13002913177533L372.1557774560122,111.17656913508915L372.0088075375887,111.45580915497214L372.0088075375887,111.67299583710329L372.1190349764063,111.7660758437309L372.32111861423846,111.7660758437309L372.5415734918736,111.73504917485502L372.7620283695087,111.92120918811034L372.8906270481293,112.41763589012442L372.9273695277351,112.89854925770058L372.98248324714393,113.3639492908388L373.1294531655674,113.82934932397703L373.36827928300545,114.26372268823937L373.6438478800493,114.66706938362577L373.9929014363049,115.00836274126047L374.50729615078694,115.87710946978518L374.3603262323635,116.3425095029234L374.1582425945312,116.79239620162366L373.0559682063557,118.4523229864833L373.0192257267497,118.56091632754891L373.07433944615855,118.73156300636623L373.0559682063557,118.84015634743182L372.964112007341,118.9022096851836L372.7252858899029,119.01080302624916L372.65180093069125,119.08836969843884L372.6334296908883,119.32106971500798L372.67017217049397,119.52274306270118L372.65180093069125,119.72441641039444L372.52320225207063,119.92608975808767L372.1190349764063,119.61582306932885L371.97206505798283,119.83300975146003L372.0455500171946,121.1671565131229L372.02717877739167,121.36882986081613L371.93532257837705,121.64806988069904L371.6964964609389,122.14449658271317L371.7516101803477,122.2686032582167L372.0088075375887,122.36168326484432L372.28437613463257,122.36168326484432L372.5599447316765,122.33065659596843L372.81714208891754,122.37719659928226L373.0192257267497,122.6098966158514L373.11108192576444,122.85810996685845L373.29479432379355,125.41781014911865L373.23968060438483,125.9918035233224L373.03759696655266,126.58131023196415L373.03759696655266,126.8295235829712L373.221309364582,127.18633027504384L373.2764230839907,127.40351695717501L373.221309364582,127.65173030818204L373.1294531655674,127.89994365918909L372.98248324714393,128.706637049962L372.35786109384446,130.13386381825254L372.3027473744355,130.66131718914252L372.3394898540414,131.18877056003248L372.44971729285896,131.43698391103953L372.8906270481293,131.85584394086396L373.07433944615855,132.0730306229951L373.2764230839907,132.58497065944712L373.5519916810347,133.68641740454095L373.8459315178816,134.15181743767917L374.39706871196927,134.33797745093443L375.5544568195537,133.99668409329976L376.1790789728532,134.19835744099296L376.4362763300943,134.19835744099296L376.61998872812364,134.26041077874476L376.6383599679266,134.58619080194148L376.50976128930597,134.83440415294854L376.4362763300943,134.88094415626233L376.03210905442984,135.11364417283147L375.90351037580933,135.3773708582765L375.6646842583714,135.4239108615903L375.60957053896254,135.53250420265587L375.5911992991596,135.9203375636044L375.44422938073626,136.10649757685968L374.96657714586013,136.29265759011494L374.80123598763373,136.4633042689323L374.5440386303927,136.82011096100496L374.2317275537431,137.14589098420169L373.8643027576844,137.36307766633286L373.5152492014288,137.44064433852253L373.3866505228083,137.3941043352087L373.2580518441878,137.31653766301903L373.11108192576444,137.23897099082933L372.90899828793215,137.22345765639136L372.5048310122678,137.3010243285811L372.3762323336473,137.34756433189492L372.19251993561795,137.54923767958815L371.93532257837705,138.09220438491607L371.7148677007418,138.24733772929545L371.54952654251554,138.29387773260927L371.4576703435009,138.3404177359231L371.38418538428914,138.4024710736749L371.31070042507747,138.46452441142662L371.21884422606274,138.54209108361633L371.163730506654,138.65068442468194L371.09024554744235,138.72825109687162L370.92490438921607,138.74376443130956L370.8514194300043,138.66619775911988L370.66770703197494,138.30939106704724L370.5574795931575,138.20079772598166L370.41050967473404,138.16977105710575L370.3002822359165,138.18528439154372L370.0430848786755,138.24733772929545L369.91448620005485,138.30939106704724L369.7675162816315,138.43349774255077L369.6389176030109,138.4955510803025L369.52869016419345,138.38695773923692L369.4552052049818,138.2628510637334L369.38172024577,138.18528439154372L369.27149280695244,138.1542577226678L369.14289412833205,138.2163110604196L368.9224392506969,138.4024710736749L368.7570980924705,138.61965775580603L368.2794458575944,139.5659711565204L367.70993742370354,140.38817788173128L367.48948254606853,140.80703791155565L367.4343688266597,141.0862779314386L367.5262250256744,142.23426467984618L367.636452464492,142.40491135866353L368.0589909799593,142.66863804410852L368.4447870158208,143.02544473618116L368.5733856944412,143.3977647626917L368.4999007352295,143.84765146139202L368.0773622197622,144.79396486210638L367.8201648625212,146.53145831915575L367.83853610232416,146.81069833903865L367.9120210615358,147.07442502448365L368.04061974015633,147.33815170992864L368.2794458575944,147.69495840200125L368.3345595770031,147.88111841525657L368.2427033779885,148.09830509738774L367.7834223829152,148.23792510732918L367.37925510725086,148.71883847490534L367.103686510207,149.339371852423L366.8832316325719,150.22363191538557L366.6627767549368,151.06135197503434L366.3872081578928,151.66637201811406L365.9462984026226,151.89907203468317L365.65235856577567,151.945612037997L365.5237598871553,152.11625871681431L365.4870174075494,152.3644720678214L365.5053886473522,152.6437120877043L365.43190368814066,153.00051877977697L365.2298200503084,153.1401387897184L364.6419403766147,153.2177054619081L364.4398567387824,153.35732547184955L364.0173182233151,153.71413216392222L363.8152345854829,153.74515883279807L363.521294748636,153.63656549173254L363.300839871001,153.62105215729454L363.1354987127746,153.74515883279807L363.0803849933659,154.07093885599483L363.2640973913951,154.56736555800896L363.7601208660742,154.6759588990745L364.32962929996495,154.69147223351248L364.75216781543224,154.8621189123298L365.34004748912594,155.68432563754067L365.43190368814066,155.87048565079593L365.30330500952005,156.04113232961328L364.71542533582647,156.30485901505827L364.55008417759996,156.4910190283136L364.6419403766147,156.909879058138L365.10122137168787,157.11155240583116L365.67072980557873,157.22014574689678L366.14838204045475,157.39079242571412L366.3872081578928,157.59246577340738L367.15880022961585,158.53877917412171L367.2322851888274,158.77147919069083L367.2690276684334,159.00417920725997L367.360883867448,159.252392558267L367.48948254606853,159.36098589933258L367.7650511431124,159.34547256489466L367.8936498217329,159.40752590264637L367.9855060207475,159.54714591258787L368.0038772605503,159.62471258477757L367.96713478094466,159.7177925914052L367.9120210615358,160.50897264774017L367.9855060207475,160.7416726643093L368.35293081680607,161.20707269744753L368.64687065365297,161.1450193596957L369.14289412833205,160.35383930336076L369.3449777661642,160.12113928679165L369.56543264379934,160.01254594572606L370.11656983788714,159.85741260134665L370.2635397563105,159.7177925914052L370.41050967473404,159.31444589601873L370.5574795931575,159.23687922382905L370.79630571059556,159.40752590264637L371.2739579454716,160.30729930004694L371.54952654251554,160.63307932324372L370.41050967473404,161.0053993497543L369.0326666895144,161.4707993828925L367.06694403060123,162.122359429286L364.3480005397678,163.02213282668652L361.7209132479491,163.90639288964917L359.33265207356857,164.69757294598415L357.67924049130505,165.25605298575002L356.2279125468738,165.73696635332615L354.96029700047177,165.96966636989524L354.37241732677813,166.14031304871258L353.17828673958775,166.66776641960257L351.5983601165359,167.17970645605462L349.5407812586081,167.84677983688604L347.28111876284794,168.57590655546932L346.21558685427806,169.1188732607972L344.7458876700438,169.87902664825626L343.4047871644302,170.35994001583242L341.76974682196965,170.74777337678097L339.74891044364756,171.22868674435708L338.113870101187,171.61652010530563L337.83830150414303,171.63203343974357L335.6153814879888,172.12846014175764L334.05382610473987,172.48526683383028L331.8676485681915,173.26093355572735L330.5265480625779,173.72633358886557L328.87313648031426,174.33135363194523L327.4034372960801,175.0294536816525L326.24604918849565,175.60344705585638L324.868206203276,175.75858040023573L324.6110088460351,175.8206337379875L324.6110088460351,175.83614707242546L324.59263760623213,175.94474041349105L324.70286504504975,176.41014044662927L324.70286504504975,177.1082404963366L324.7947212440643,177.790827211606L325.36422967795505,179.74550735078648L325.7683969536195,180.50566073824555L326.2644204282986,180.81592742700437L326.5032465457366,180.90900743363204L326.7053301835689,181.11068078132527L326.8523001019922,181.3899208012082L326.9625275408098,181.68467415552905L327.03601250002157,182.01045417872578L327.0727549796273,183.03433425162987L327.1278686990362,183.2049809304472L327.3666948164742,183.51524761920606L327.4034372960801,183.67038096358542L327.3666948164742,183.82551430796485L327.0727549796273,184.36848101329275L326.98089878061273,184.72528770536542L327.01764126021857,184.94247438749656L327.45855101548887,185.39236108619687L327.5504072145034,185.51646776170037L327.7157483727299,185.98186779483856L327.679005893124,186.02840779815244L327.45855101548887,186.10597447034212L326.8339288621893,186.35418782134914L326.3930191069191,186.3697011557871L325.89699563223996,186.15251447365594L325.639798274999,186.04392113259036L325.23563099933466,185.99738112927653L325.1070323207141,186.04392113259036L324.868206203276,186.24559448028361L324.73960752465547,186.3231611524733L324.50078140721746,186.38521449022505L324.3170690091882,186.3231611524733L323.9129017335238,186.04392113259036L323.28827958022424,185.91981445708686L322.64528618712177,186.01289446371447L322.0206640338222,186.16802780809388L321.41441312032566,186.27662114915947L320.73467724761736,186.19905447696974L319.3752055022006,185.84224778489713L318.6770983896894,185.78019444714536L318.32804483343375,185.85776111933507L317.68505144033134,186.13700113921797L317.0053155676229,186.24559448028361L316.1051248172795,186.54034783460446L315.719328781418,186.58688783791823L315.38864646496523,186.54034783460446L315.0947066281185,186.46278116241473L314.76402431166576,186.41624115910093L314.37822827580425,186.52483450016652L313.7903486021106,187.00574786774268L313.51478000506665,187.17639454656003L312.15530825965,187.2849878876256L311.916482142212,187.33152789093938L308.46268905926155,188.8828613347335L307.8931806253708,189.45685470893724L307.7645819467503,189.53442138112698L307.4338996302976,189.6119880533167L307.1399597934507,189.79814806657197L306.8827624362098,190.01533474870314L306.73579251778636,190.18598142752046L306.38673896153074,190.79100147060015L306.2030265635014,190.97716148385544L305.81723052763994,191.05472815604514L305.10075217532574,191.0702414904831L304.77006985887306,191.11678149379688L304.6965848996613,191.16332149711073L304.4761300220262,191.25640150373837L303.9433640677413,191.7528282057525L303.5943105114857,192.1716882355769L303.5575680318798,192.2802815766425L303.33711315424466,192.6060615998392L303.2819994348359,192.77670827865657L303.3187419144417,192.916328288598L303.3922268736534,193.0249216296636L303.46571183286517,193.11800163629124L303.502454312471,193.19556830848092L303.41059811345644,193.7385350138089L303.20851447562416,194.39009506020238L303.1350295164125,195.01062843772L303.3922268736534,195.46051513642024L303.02480207759487,196.2982351960691L302.9696883581861,196.6395285537037L303.02480207759487,196.90325523914873L303.2819994348359,197.57032861998022L303.2819994348359,197.92713531205283L302.91457463877737,198.5321553551325L302.8410896795656,198.65626203063601L302.749233480551,199.21474207040188L302.5287786029159,199.46295542140894L301.9041564496163,199.9128421201092L301.7755577709958,200.19208213999218L301.463246694346,200.47132215987506L301.33464801572563,200.59542883537858L301.1141931380904,200.62645550425447L300.6732833828201,200.62645550425447L299.9200625509001,200.76607551419596L294.2249782119925,202.9224290010697L293.1594463034227,203.58950238190113L291.61626215997677,204.83056913693633L290.1833054553484,205.42007584557808L287.75830180136194,206.42844258404426L286.9499672500331,206.8938426171825L286.3253450967336,207.5609159980139L284.19428127959395,210.64806955116404L283.93708392235294,211.2065495909299L283.60640160590026,212.44761634596517L283.1838630904329,213.23879640230018L282.35715729930115,214.06100312751101L280.74048819664347,215.4727165613636L276.58858800118185,219.61477685629376L276.4232468429555,219.84747687286284L276.40487560315256,220.00261021724225L276.4232468429555,220.40595691262865L276.45998932256134,220.76276360470132L275.92722336827643,221.39881031665692L275.33934369458274,221.94177702198482L274.88006269950955,222.3606370518092L274.45752418404226,222.59333706837833L274.2186980666042,222.65539040613004L273.4654772346841,222.68641707500598L273.3001360764578,222.74847041275774L272.73062764256696,223.12079043926826L272.3632028465085,222.9966837637648L270.8751324224713,223.64824381015825L270.4893363866098,223.6947838134721L270.25051026917174,223.75683715122386L270.0484266313395,223.8809438267274L269.5891456362664,224.28429052211385L269.4054332382371,224.33083052542764L269.1849783606019,224.28429052211385L268.2847876102585,224.02056383666883L268.0275902530175,223.8964571611653L267.80713537538236,223.71029714791007L267.5683092579443,223.4465704624651L267.36622562011206,223.29143711808564L267.1090282628711,223.18284377702003L266.6864897474038,223.12079043926826L266.02512511449834,222.91911709157506L264.83099452730806,222.28307037961952L264.0961449351909,222.158963704116L263.5266365013002,222.23653037630567L263.3980378226797,222.20550370742978L263.306181623665,222.11242370080214L263.1775829450446,222.03485702861246L263.0306130266211,221.9572903564228L262.31413467430696,221.8797236842331L262.16716475588356,221.83318368091926L262.0753085568689,221.74010367429156L261.9834523578542,221.5849703299122L261.87322491903666,221.46086365440863L261.74462624041615,221.39881031665692L261.59765632199276,221.4763769888466L261.0465191279049,221.8797236842331L260.8995492094815,221.9572903564228L260.532124413423,222.03485702861246L260.274927056182,222.17447703855396L259.9993584591381,222.23653037630567L259.9075022601234,222.26755704518155L259.8891310203205,222.32961038293337L259.92587349992635,222.53128373062657L259.9075022601234,222.59333706837833L259.6870473824883,222.65539040613004L259.39310754564144,222.65539040613004L259.13591018840043,222.7174437438818L259.0440539893858,222.90360375713715L258.93382655056826,222.79501041607153L258.07037827983066,223.22938378033393L257.8866658818013,223.24489711477185L257.2253012488959,223.22938378033393L256.2699967791437,222.79501041607153L256.10465562091736,222.60885040281624L255.9944281820998,222.3606370518092L256.0127994219028,222.1279370352401L256.2699967791437,222.05037036305043L256.0495419015086,221.77113034316744L255.33306354919438,221.49189032328457L255.18609363077098,221.2436769722775L255.03912371234753,221.07303029346014L254.7268126356978,220.8868702802049L254.37775907944217,220.71622360138753L253.78987940574848,220.57660359144603L253.6061670077192,220.40595691262865L253.40408336988696,220.28185023712518L253.0182873340255,220.32839024043898L252.1915815428938,220.66968359807373L251.12604963432392,220.87135694576688L251.0341934353093,220.90238361464282L250.9055947566888,221.04200362458425L250.81373855767418,221.07303029346014L250.70351111885662,221.05751695902222L250.55654120043317,220.9799502868325L250.48305624122145,220.96443695239458L249.30729689383412,220.96443695239458L249.12358449580478,220.9334102835187L248.60918978132287,220.7472502702634L248.11316630664373,220.77827693913923L247.96619638822034,220.7472502702634L247.6538853115706,220.6076302603219L247.17623307669447,220.2508235682493L246.88229323984763,220.1112035583078L246.77206580103007,220.00261021724225L246.6802096020154,219.81645020398696L246.5148684437891,219.63029019073167L246.29441356615388,219.50618351522814L246.07395868851881,219.4596435119143L245.81676133127775,219.44413017747638L245.68816265265735,219.3975901741626L245.48607901482512,219.13386348871757L245.4125940556134,219.08732348540377L245.22888165758405,218.99424347877607L245.15539669837239,218.93219014102436L245.1370254585695,218.83911013439672L245.15539669837239,218.63743678670352L245.1002829789636,218.54435678007582L244.87982810132848,218.31165676350668L244.76960066251092,218.31165676350668L244.62263074408747,218.49781677676202L244.58588826448164,218.38922343569647L244.5124033052699,218.2806300946308L244.40217586645235,218.20306342244112L244.25520594802902,218.1720367535653L244.21846346842307,218.0944700813755L244.08986478980262,217.62907004823728L244.03475107039378,217.59804337936146L243.75918247334988,217.36534336279237L243.70406875394116,217.30329002504055L243.52035635591182,217.30329002504055L243.41012891709426,217.27226335616473L243.33664395788253,217.21021001841297L243.22641651906503,217.08610334290938L243.22641651906503,216.97751000184388L243.33664395788253,216.71378331639886L243.28153023847375,216.667243313085L243.11618908024747,216.68275664752298L242.82224924340056,216.77583665415057L242.67527932497717,216.77583665415057L242.41808196773616,216.58967664089533L242.25274080950982,216.34146328988828L242.23436956970693,216.3259499554503L242.0322859318747,216.2018432799468L241.7199748552249,216.34146328988828L241.51789121739267,216.06222327000535L241.09535270192544,215.87606325675006L240.02982079335555,215.6743899090568L239.5154260788736,215.68990324349477L239.35008492064725,215.6588765746189L239.2398574818297,215.5813099024292L239.16637252261796,215.50374323023942L239.0745163236033,215.4727165613636L237.73341581798957,215.27104321367034L237.03530870547837,215.27104321367034L236.88833878705492,215.31758321698425L236.77811134823736,215.42617655804975L236.6862551492227,215.53476989911542L236.52091399099635,215.627849905743L236.28208787355828,215.82952325343626L236.11674671533194,215.90708992562594L235.9697767969085,215.90708992562594L235.8228068784851,215.89157659118797L235.58398076104703,215.79849658456033L235.43701084262358,215.70541657793274L235.34515464360896,215.59682323686712L235.21655596498852,215.5192565646774L234.81238868932405,215.44168989248772L234.51844885247726,215.30206988254628L234.04079661760113,215.22450321035654L233.3794319846957,214.9918031937874L233.10386338765176,214.9452631904736L232.82829479060786,214.9762898593495L232.16693015770244,215.16244987260478L232.03833147908193,215.20898987591858L231.87299032085565,215.11590986929093L231.02791328992095,215.0848832004151L230.7339734530741,215.05385653153917L230.4584048560302,215.0693698659772L229.98075262115407,215.16244987260478L229.31938798824865,215.28655654810825L228.63965211554034,215.42617655804975L227.97828748263493,215.55028323355333L227.29855160992662,215.68990324349477L226.6371869770212,215.82952325343626L225.9574511043129,215.95362992893973L225.2777152316046,216.09324993888123L224.61635059869917,216.2173566143848L223.9366147259908,216.3569766243262L223.2568788532825,216.48108329982972L222.59551422037714,216.62070330977122L221.91577834766878,216.74480998527474L221.25441371476336,216.88442999521618L220.57467784205505,217.0085366707197L219.8949419693467,217.14815668066115L219.23357733644133,217.28777669060264L218.7559251015652,217.38085669723023L218.46198526471835,217.38085669723023L217.9108480706305,217.4894500382959L217.2862259173309,217.61355671379937L217.19436971831635,217.39637003166825L217.1759984785134,217.19469668397505L217.2862259173309,216.97751000184388L216.93717236107534,216.6982699819609L216.6248612844256,216.34146328988828L216.31255020777581,216.1242766077571L216.07372409033775,216.0156832666915L215.85326921270257,215.93811659450182L215.3388744982206,215.90708992562594L215.0816771409796,215.93811659450182L214.8061085439357,216.00016993225364L214.5305399468918,216.03119660112947L214.2549713498479,215.96914326337765L214.0712589518186,215.7674699156845L214.05288771201566,215.55028323355333L214.0896301916215,215.30206988254628L214.05288771201566,215.05385653153917L213.88754655378932,214.8832098527219L213.18943944127807,214.61948316727688L212.8220146452195,214.32472981295598L212.43621860935804,213.9058697831316L212.1422787725112,213.4249564155554L212.01368009389074,213.00609638573104L211.921823894876,212.83544970691372L211.26045926197065,212.15286299164433L211.04000438433553,212.0287563161408L210.2867835524155,211.8270829684476L209.3314790826633,211.43924960749905L208.90894056719588,211.16000958761612L208.2843184138963,210.61704288228816L207.80666617902023,210.36882953128116L207.5862113013851,210.19818285246384L207.43924138296165,209.9654828358947L207.2739002247353,209.23635611731152L207.0534453471002,208.8174960874871L206.7411342704504,208.3986360576627L206.02465591813626,207.66950933907947L205.80420104050108,207.51437599470006L204.86726781055182,207.14205596818948L204.68355541252254,207.14205596818948L204.59169921350787,207.08000263043772L204.51821425429614,206.94038262049634L204.51821425429614,206.67665593505131L204.4814717746903,206.53703592510982L204.27938813685807,206.35087591185453L203.78336466217905,206.19574256747512L203.56290978454393,206.05612255753368L203.43431110592343,205.8699625442784L203.2505987078942,205.42007584557808L202.11158184011265,203.68258238852877L202.0013544012951,203.54296237858728L201.85438448287164,203.4653957063976L201.59718712563063,203.41885570308375L201.505330926616,203.37231569976996L201.43184596740429,203.27923569314237L201.32161852858673,203.09307567988702L201.08279241114866,202.7672956566903L200.9725649723311,202.56562230899704L200.80722381410482,202.41048896461763L200.40305653844035,202.33292229242795L200.32957157922868,202.30189562355213L200.21934414041112,202.1777889480485L200.14585918119934,202.13124894473475L200.09074546179062,202.16227561361063L200.03563174238172,202.20881561692443L199.88866182395833,202.25535562023822L199.64983570652026,202.33292229242795L199.52123702789982,202.34843562686586L199.3007821502647,202.28638228911416L197.95968164465097,201.21596221289622L197.84945420583335,200.99877553076504L197.81271172622752,200.73504884532008L197.7392267670158,200.502348828751L197.5738856087895,200.4092688221233L197.2799457719426,200.3782421532474L197.20646081273094,200.25413547774394L197.24320329233672,200.08348879892657L197.26157453213972,199.8818154512333L197.1697183331251,199.64911543466422L196.9125209758841,199.21474207040188L196.8390360166723,199.01306872270862L196.8390360166723,198.74934203726366L196.93089221568698,198.4545886829428L197.0594908943075,198.1908619974978L197.20646081273094,197.9891886498046L197.22483205253388,197.7875153021114L196.96763469529282,197.6634086266078L196.45323998081085,197.55481528554225L196.43486874100796,197.4617352789146L196.41649750120501,197.1204419212799L196.39812626140213,196.96530857690055L196.3430125419933,196.88774190471082L196.159300143964,196.7326085603314L196.08581518475233,196.6395285537037L196.0123302255406,196.40682853713463L195.97558774593477,196.20515518944143L195.92047402652594,196.00348184174825L195.7551328682996,195.78629515961705L195.8837315469201,195.80180849405497L196.2878988225845,195.78629515961705L195.7367616284967,194.9330617655303L195.31422311302936,194.43663506351618L195.27748063342352,194.09534170588148L195.27748063342352,193.84712835487443L195.27748063342352,192.88530161972216L195.27748063342352,191.89244821569395L195.27748063342352,191.84590821238012L195.27748063342352,191.13229482823488L195.27748063342352,189.53442138112698L195.27748063342352,187.9365479340191L195.27748063342352,186.3231611524733L195.27748063342352,184.72528770536542L195.27748063342352,184.02718765565808L195.27748063342352,183.56178762251986L195.27748063342352,183.2204942648852L195.27748063342352,182.59996088736753L195.27748063342352,180.22642071836265L195.27748063342352,177.86839388379568L195.27748063342352,175.49485371479074L195.27748063342352,173.1368268802238L195.27748063342352,170.76328671121888L195.27748063342352,168.40525987665194L195.27748063342352,166.031719707647L195.27748063342352,163.65817953864212L195.27748063342352,161.30015270407517L195.27748063342352,158.92661253507023L195.25910939362058,156.5685857005033L195.25910939362058,155.6222722997889L195.25910939362058,154.19504553149838L195.25910939362058,151.82150536249347L195.25910939362058,149.46347852792653L195.25910939362058,147.0899383589216L195.25910939362058,144.73191152435462L197.20646081273094,144.73191152435462L199.17218347164413,144.73191152435462L201.1195348907545,144.73191152435462L203.06688630986486,144.73191152435462L205.01423772897516,144.73191152435462L206.96158914808552,144.73191152435462L208.92731180699883,144.73191152435462L210.8746632261092,144.73191152435462L212.8220146452195,144.73191152435462L214.78773730413275,144.73191152435462L216.7350887232431,144.73191152435462L218.68244014235347,144.73191152435462L220.62979156146378,144.73191152435462L222.59551422037714,144.73191152435462L224.54286563948745,144.73191152435462L226.4902170585978,144.73191152435462L227.00461177307977,144.73191152435462L226.8208993750505,144.15791815015083L226.54533077800653,143.66149144813673L226.1962772217509,143.21160474943648L225.35120019081626,142.34285802091176L225.02051787436358,141.90848465664942L224.87354795594013,141.39654462019737L224.98377539475763,140.77601124267977L225.29608647140742,140.07791119297244L225.59002630825432,138.9144111101269L225.86559490529828,137.8129643650331L226.06767854313046,137.36307766633286L226.7657856556417,136.33919759342876L227.29855160992662,135.5790442059697L227.42715028854713,135.3153175205247L227.4822640079559,135.0515908350797L227.3169228497295,134.33797745093443L227.26180913032073,133.37615071578213L227.0964679720944,132.9883173548336L226.69230069643004,132.56945732500924L226.36161837997724,132.08854395743305L226.2697621809627,131.3749305732878L226.37998961978025,129.17203708310024L226.47184581879486,127.15530360616796L226.80252813524754,126.39515021870889L226.83927061485338,126.24001687432946L226.7657856556417,125.85218351338096L226.69230069643004,124.67317009609746L226.56370201780948,124.28533673514895L226.39836085958314,123.99058338082807L226.2697621809627,123.6958300265072L226.2697621809627,123.29248333112074L226.36161837997724,122.98221664236195L226.6371869770212,122.36168326484432L227.07809673229144,121.69460988401289L227.15158169150317,121.5084498707576L227.15158169150317,121.26023651975052L227.0964679720944,120.87240315880203L227.11483921189733,120.6707298111088L227.15158169150317,120.50008313229142L227.3169228497295,120.26738311572237L227.81294632440859,119.89506308921176L227.95991624283204,119.67787640708059L227.95991624283204,119.49171639382533L227.26180913032073,117.97140961890716L227.1699529313061,117.56806292352067L227.2250666507149,115.33414276445725L226.93112681386805,115.28760276114346L226.83927061485338,115.07041607901229L226.9127555740651,114.4653960359326L226.89438433426227,113.59664930740792L226.949498053671,113.31740928752498L227.0413542526856,113.00714259876617L226.98624053327683,112.77444258219708L226.69230069643004,112.32455588349677L226.58207325761248,112.04531586361387L226.47184581879486,111.28516247615477L227.02298301288266,111.30067581059268L227.7578326049998,111.44029582053417L228.41919723790517,111.68850917154123L228.7866220339638,112.01428919473796L228.7866220339638,112.15390920467942L228.69476583494907,112.43314922456238L228.69476583494907,112.58828256894176L228.73150831455496,112.75892924775911L228.84173575337252,113.06919593651796L228.86010699317552,113.25535594977322L228.84173575337252,113.76729598622521L228.93359195238713,113.9689693339185L229.26427426883993,113.92242933060467L229.5765853454896,113.81383598953906L229.83378270273062,113.82934932397703L230.4216623764243,113.99999600279438L230.7339734530741,114.0465360061082L231.3218531267678,114.0465360061082L231.61579296361458,114.07756267498405L231.9648465198702,114.23269601936349L232.42412751494345,114.5119360392464L232.80992355080497,114.86874273131903L232.9936359488342,115.17900942007785L232.93852222942542,115.36516943333314L232.80992355080497,115.50478944327457L232.68132487218446,115.64440945321604L232.68132487218446,115.87710946978518L232.75480983139613,116.06326948304044L233.0303784284401,116.29596949960955L233.14060586725765,116.42007617511308L233.21409082646937,116.69931619499602L233.23246206627226,117.0250962181928L233.21409082646937,117.3663895758275L233.15897710706054,117.67665626458626L233.0303784284401,117.92486961559334L232.53435495376107,118.70053633749035L232.33227131592884,118.91772301962152L231.67090668302342,119.10388303287681L231.46882304519124,119.27452971169416L231.61579296361458,119.55376973157709L231.8546190810527,119.67787640708059L232.51598371395806,119.67787640708059L232.80992355080497,119.72441641039444L233.15897710706054,119.94160309252558L233.6917430613455,120.42251646010175L234.00405413799524,120.56213647004324L234.37147893405375,120.5931631389191L234.70216125050655,120.53110980116736L235.3635258834119,120.29840978459825L235.5104958018353,120.28289645016028L235.6942081998646,120.29840978459825L235.85954935809093,120.26738311572237L235.9697767969085,120.14327644021881L236.00651927651438,119.97262976140146L236.0800042357261,119.81749641702208L236.17186043474072,119.69338974151853L236.31883035316417,119.569283066015L236.44742903178462,119.50722972826327L236.7964825880403,119.42966305607354L236.96182374626665,119.35209638388386L237.127164904493,119.19696303950445L237.4027335015369,118.80912967855593L237.58644589956617,118.65399633417653L238.17432557325992,118.40578298316947L239.36845616045014,118.40578298316947L239.97470707394677,118.28167630766592L241.15046642133416,117.70768293346217L241.79345981443663,117.50600958576894L242.39971072793327,117.55254958908276L244.65937322369336,117.3508762413895L245.59630645364268,117.16471622813424L247.0843768776798,116.43558950955105L247.58040035235888,116.3425095029234L247.76411275038816,116.51315618174073L247.800855229994,116.86996287381336L247.78248399019105,117.27330956919982L247.81922646979694,117.58357625795864L247.800855229994,117.73870960233805L247.6722565513735,117.84730294340363L247.35994547472376,117.97140961890716L247.17623307669447,118.1110296288486L247.2497180359062,118.25064963879007L247.43343043393543,118.39026964873153L247.50691539314715,118.51437632423506L247.37831671452665,118.80912967855593L247.19460431649736,118.94874968849743L247.06600563787686,119.13490970175269L247.0843768776798,119.50722972826327L247.19460431649736,119.83300975146003L247.56202911255593,120.43802979453972L247.6722565513735,120.71726981442262L247.6538853115706,120.87240315880203L247.43343043393543,121.12061650980911L247.37831671452665,121.26023651975052L247.37831671452665,121.41536986412996L247.41505919413254,121.69460988401289L247.8375977095999,122.966703307924L247.98456762802329,123.24594332780694L248.11316630664373,123.37005000331047L248.22339374546135,123.4321033410622L248.35199242408186,123.44761667550017L248.5540760619141,123.44761667550017L248.7745309395492,123.494156678814L248.86638713856382,123.60275001987955L248.9398720977755,123.7268566953831L249.086842016199,123.86647670532454L249.98703276654237,124.28533673514895L250.26260136358633,124.51803675171809L250.28097260338927,124.61111675834573L250.29934384319216,124.68868343053543L250.28097260338927,124.76625010272511L250.15237392476877,125.16959679811157L250.24423012378338,125.38678348024274L250.48305624122145,125.47986348687036L250.79536731787124,125.47986348687036L250.9423372362947,125.40229681468068L251.0341934353093,125.2937034736151L251.14442087412687,125.20062346698745L251.34650451195904,125.16959679811157L251.51184567018544,125.12305679479775L251.56695938959422,124.96792345041834L251.62207310900294,124.81279010603896L251.7506717876235,124.71971009941129L252.4671501399377,124.73522343384926L252.99991609422256,125.07651679148395L253.49593956890163,125.52640349018421L254.10219048239827,125.8676968478189L254.37775907944217,125.9142368511327L255.29632106958854,125.9142368511327L255.46166222781494,125.89872351669479L255.77397330446468,125.75910350675332L255.88420074328224,125.72807683787741L256.0679131413115,125.75910350675332L256.1413981005232,125.80564351006711L256.196511819932,125.88321018225685L257.0599600906696,126.56579689752624L257.3906424071223,126.68990357302977L257.6110972847574,126.86055025184709L257.8315521623926,127.34146361942325L258.1071207594365,127.46557029492675L258.3092043972687,127.49659696380266L261.02814788810207,127.46557029492675L261.37720144435764,127.58967697043033L261.6895125210074,127.79135031812353L262.0201948374601,127.94648366250291L262.57133203154797,127.91545699362703L262.9020143480006,128.05507700356853L263.08572674602993,128.07059033800644L263.2694391440592,127.99302366581674L263.56337898090607,127.79135031812353L263.72872013913235,127.72929698037174L264.31659981282604,127.62070363930619L264.9228507263227,127.60519030486824L265.29027552238125,127.72929698037174L265.56584411942515,127.930970328065L265.8046702368632,128.16367034463408L266.09861007371006,128.38085702676526L266.64974726779786,128.56701704002057L267.9173628141999,128.64458371221028L268.52361372769656,128.7686903877138L268.8175535645434,128.93933706653112L269.0931221615873,129.14101041422435L269.3503195188283,129.26511708972785L269.68100183528094,129.20306375197612L269.919827952719,128.97036373540698L270.10354035074835,128.706637049962L270.34236646818647,128.50496370226878L270.7465337438508,128.50496370226878L271.463012096165,128.58253037445849L272.14274796887327,128.44291036451702L272.74899888236996,128.0861036724444L273.3001360764578,127.57416363599233L273.5940759133046,126.95363025847473L273.66756087251633,125.68153683456362L273.8145307909397,125.06100345704598L274.0533569083778,124.70419676497337L274.29218302581586,124.48701008284218L274.45752418404226,124.25431006627309L274.47589542384515,123.83545003644869L274.29218302581586,123.16837665561724L274.2738117860129,122.87362330129636L274.4942666636481,122.64092328472725L274.6228653422686,122.62540995028931L274.97191889852417,122.67194995360313L275.1188888169476,122.67194995360313L275.7251397304442,122.4702766059099L276.3865043633496,122.42373660259608L276.8457853584228,122.25308992377876L276.9376415574375,122.23757658934079L277.2132101544814,122.6098966158514L277.37855131270777,123.32350999999665L277.45203627191944,124.09917672189371L277.4152937923136,124.62663009278364L277.80108982817507,125.9918035233224L280.72211695684064,127.77583698368556L281.45696654895767,129.01690373872083L281.5304515081694,129.65295045067637L282.2836723400894,131.80930393755014L282.54086969733044,132.1350839607469L283.3859467282651,132.81767067601626L283.4594316874768,132.87972401376803L284.1391675601851,133.60885073235121L284.5800773154554,133.74847074229268L285.27818442796666,133.81052408004447L285.99466278028086,133.77949741116856L286.49068625495994,133.65539073566507L286.80299733160973,133.42269071909595L286.968338489836,133.2055040369648L287.1704221276682,133.08139736146128L287.57458940333265,133.11242403033714L287.8869004799824,133.23653070584066L288.78709123032587,133.76398407673065L289.00754610796105,134.04322409661356L289.0810310671727,134.44657079200002L289.1728872661874,134.77235081519677L289.521940822443,134.88094415626233L289.8158806592898,134.83440415294854L290.036335536925,134.81889081851062L291.1937236445094,134.92748415957618L291.34069356293287,135.00505083176589L291.39580728234165,135.14467084170732L291.4325497619475,135.29980418608676L291.5060347211592,135.4394241960282L291.89183075702067,135.73417755034907L292.1122856346558,135.64109754372146L292.35111175209386,135.4239108615903L292.7369077879553,135.3153175205247L293.0492188646051,135.45493753046617L293.2880449820432,135.67212421259734L293.54524233928424,135.85828422585263L293.96778085475154,135.85828422585263L294.2800919314013,135.81174422253878L294.59240300805106,135.84277089141472L294.8863428448979,135.9203375636044L295.16191144194187,136.07547090798377L296.4662694679497,137.17691765307757L296.6867243455848,137.51821101071226L296.98066418243167,138.29387773260927L297.1827478202639,138.65068442468194L297.71551377454875,139.19365113000984L297.8624836929722,139.48840448433072L297.8624836929722,139.9072645141551L297.67877129494286,140.15547786516217L297.42157393770196,140.34163787841743L297.2746040192785,140.5588245605486L297.3848314580961,140.9621712559351L297.69714253474586,141.38103128575946L298.0461960910015,141.72232464339416L298.30339344824245,142.0946446699047L298.3585071676513,142.90133806067763L298.5238483258776,143.056471405057L298.74430320351274,143.056471405057L299.00150056075375,142.94787806399148L299.1484704791772,142.76171805073616L299.36892535681227,142.3118313520359L299.5893802344474,142.18772467653238L300.3058585867616,142.34285802091176L300.94885197986406,142.97890473286733L302.0143838884338,144.32856482896815L302.2899524854778,144.5767781799752L302.4001799242954,144.74742485879256L302.5287786029159,145.30590489855842L302.6022635621276,145.38347157074816L302.8227184397627,145.44552490849986L302.87783215917153,145.52309158068957L302.85946091936853,145.60065825287927L302.78597596015686,145.77130493169665L302.78597596015686,145.83335826944838L302.80434719995975,145.9109249416381L302.7676047203539,146.08157162045543L302.78597596015686,146.15913829264514L302.85946091936853,146.23670496483484L302.9513171183832,146.25221829927278L303.02480207759487,146.28324496814867L303.0799157970037,146.31427163702458L303.22688571542716,146.85723834235247L303.3738556338505,146.95031834898012L303.6861667105003,146.96583168341806L303.8331366289237,147.01237168673185L304.01684902695297,147.26058503773893L304.4945012618291,149.57207186899208L304.75169861907017,150.22363191538557L305.2293508539463,150.67351861408585L305.4314344917785,150.9217319650929L305.6886318490195,150.98378530284467L305.9825716858663,150.9217319650929L306.25814028291023,150.81313862402732L306.5520801197571,150.81313862402732L306.6806787983775,150.81313862402732L307.06647483423905,150.75108528627555L307.4522708701005,150.73557195183764L307.80132442635613,150.90621863065496L307.9482943447796,151.09237864391025L308.04015054379414,151.34059199491733L308.1871204622177,151.51123867373465L308.4259465796557,151.57329201148642L308.59128773788206,151.48021200485877L308.8852275747289,151.12340531278613L309.105682452364,150.99929863728264L309.45473600861965,150.85967862734117L310.37329799876596,150.25465858426145L312.5962180149203,149.41693852461268L312.9085290915701,149.23077851135739L313.82709108171645,148.37754511727064L314.19451587777496,148.22241177289126L314.5619406738336,148.23792510732918L314.83750927087743,148.40857178614655L315.1130778679214,148.6257584682777L315.4070177047683,148.81191848153298L315.60910134260047,148.82743181597095L315.737700021221,148.78089181265713L315.86629869984137,148.79640514709504L315.9948973784619,148.9670518259124L316.05001109787077,149.12218517029183L316.0132686182648,149.29283184910915L315.9581548988561,149.44796519348853L315.8846699396444,149.57207186899208L315.75607126102386,149.6496385411818L315.4805026639799,149.71169187893355L315.37027522516235,149.83579855443708L315.3519039853595,149.95990522994057L315.38864646496523,150.28568525313736L315.3519039853595,150.4253052630788L315.26004778634484,150.47184526639262L315.1130778679214,150.50287193526847L314.9844791893009,150.5804386074582L314.9844791893009,150.79762528958938L315.0395929087097,150.98378530284467L315.13144910772434,151.15443198166201L315.223305306739,151.32507866047936L315.37027522516235,151.4491853359829L315.60910134260047,151.58880534592436L315.93978365905315,151.7284253558658L316.5644058123526,151.89907203468317L317.57482400151366,151.89907203468317L317.8136501189518,151.86804536580726L318.0524762363899,151.37161866379319L318.0708474761928,149.63412520674385L318.0708474761928,147.29161170661482L318.0708474761928,145.05769154755137L318.0708474761928,142.71517804742234L318.0708474761928,139.96931785190688L318.08921871599574,137.6112910173399L318.08921871599574,135.00505083176589L318.08921871599574,133.1744773680889L318.08921871599574,131.49903724879132L318.08921871599574,131.43698391103953L318.08921871599574,131.42147057660165L317.4094828432873,131.46801057991544L317.0788005268347,131.59211725541897L316.5460345725498,131.96443728192955L315.719328781418,132.3367573084401L315.462131424177,132.38329731175395L315.27841902614773,132.29021730512628L315.0028504291038,132.0264906196813L314.8007667912716,131.94892394749158L314.5986831534394,131.94892394749158L314.451713235016,132.01097728524337L314.21288711757796,132.21265063293657L313.9189472807311,132.3988106461919L313.22084016821975,132.63151066276097L312.98201405078174,132.80215734157832L312.8901578517672,133.00383068927155L312.6880742139349,133.62436406678918L312.6329604945261,133.9811707588618L312.5778467751174,134.13630410324123L312.54110429551156,134.26041077874476L312.6145892547232,134.38451745424825L313.0738702497964,134.97402416289L313.33106760703737,135.06710416951765L313.5698937244755,135.08261750395562L313.75360612250466,135.16018417614532L313.82709108171645,135.4394241960282L313.77197736230767,135.73417755034907L313.6066362040813,135.9668775669182L313.3861813264462,136.10649757685968L313.0738702497964,136.13752424573556L312.96364281097885,136.10649757685968L312.8901578517672,136.0444442391079L312.83504413235835,135.9668775669182L312.7615591731467,135.9203375636044L312.65133173432906,135.9203375636044L312.43087685669394,135.9358508980423L312.3206494178763,135.9203375636044L311.916482142212,135.7807175536629L311.25511750930656,135.4239108615903L311.12651883068605,135.3928841927144L310.50189667738647,135.3773708582765L310.31818427935724,135.3618575238385L310.1712143609338,135.29980418608676L309.9691307231016,135.1291575072694L309.69356212605777,134.81889081851062L309.5282209678313,134.74132414632092L308.2606054214293,134.77235081519677L307.8748093855679,134.86543082182445L307.5441270691152,135.00505083176589L307.2685584720712,135.17569751058323L307.1032173138449,134.86543082182445L306.86439119640687,134.91197082513827L306.5888225993629,135.0360775006418L306.36836772172774,135.02056416620383L306.2030265635014,134.94299749401412L306.07442788488095,134.94299749401412L306.00094292566916,134.91197082513827L305.9825716858663,134.6947841430071L305.94582920626044,134.53965079862766L304.65984242005544,132.22816396737454L304.2556751443911,131.7317372653604L303.3187419144417,131.2197972289084L303.1901432358213,131.0336372156531L303.11665827660954,130.73888386133225L302.9329458785803,130.44413050701135L302.7308622407481,130.1804038215664L302.5287786029159,130.00975714274904L301.977641408828,129.71500378842816L301.7571865311928,129.54435710961081L301.6653303321782,129.31165709304167L301.62858785257237,128.8772837287794L301.48161793414897,128.7531770532758L300.93048074006117,128.83074372546554L300.59979842360843,128.7376637188379L299.82820635188546,128.33431702345143L299.6261227140533,128.17918367907205L299.3505541170093,127.58967697043033L299.1300992393742,127.43454362605087L298.7626744433157,127.63621697374413L298.70756072390685,127.49659696380266L298.5238483258776,127.18633027504384L298.45036336666595,127.10876360285414L298.32176468804545,126.98465692735061L298.17479476962194,126.89157692072297L298.00945361139566,126.89157692072297L297.8073699735634,127.00017026178855L297.62365757553414,126.75195691078147L297.49505889691363,125.9918035233224L297.3113464988844,125.82115684450505L297.0541491416434,125.74359017231538L296.9255504630229,125.55743015906009L296.77858054459944,124.47149674840426L296.72346682519066,124.30085006958689L296.5030119475556,124.09917672189371L296.392784508738,123.94404337751425L296.44789822814676,123.88199003976251L296.4662694679497,123.7268566953831L296.1907008709058,122.79605662910663L296.09884467189113,122.65643661916519L295.86001855445306,122.42373660259608L295.7497911156355,122.25308992377876L295.5660787176063,121.78768989064054L295.4742225185916,121.66358321513701L295.40073755937993,121.43088319856787L295.38236631957693,120.5931631389191L295.43748003898577,120.31392311903616L296.2458145903145,119.13490970175269L296.30092830972336,119.07285636400093L296.649981865979,118.80912967855593L296.72346682519066,118.76258967524211L296.6132393863731,118.17308296660036L296.6683531057819,117.83178960896569L296.8153230242053,117.59908959239655L296.98066418243167,117.4284429135792L297.25623277947557,116.83893620493748L297.2378615396727,116.29596949960955L297.25623277947557,116.14083615523015L297.3113464988844,116.04775614860253L297.43994517750485,115.84608280090927L297.4766876571107,115.69094945652986L297.4766876571107,115.50478944327457L297.3113464988844,114.66706938362577L297.3113464988844,114.5119360392464L297.5318013765195,114.20166935048758L297.7338850143517,113.82934932397703L297.8073699735634,113.65870264515968L297.8073699735634,113.50356930078024L297.7889987337604,113.16227594314554L297.8073699735634,113.00714259876617L297.8992261725781,112.8675225888247L298.17479476962194,112.58828256894176L298.2299084890307,112.41763589012442L298.2666509686366,112.24698921130707L298.41362088706,111.93672252254825L298.45036336666595,111.7660758437309L298.45036336666595,111.0679757940236L298.5238483258776,110.69565576751302L298.670818244301,110.33884907544038L298.87290188213325,109.99755571780568L299.1484704791772,109.71831569792278L299.2586979179947,109.56318235354334L299.36892535681227,109.22188899590864L299.60775147425034,108.83405563496012L299.68123643346206,108.75648896277045L299.7730926324767,108.70994895945663L299.9751762703089,108.72546229389457L300.0670324693236,108.70994895945663L300.28748734695864,108.53930228063928L300.5263134643967,108.29108892963222L300.728397102229,107.99633557531138L300.82025330124355,107.68606888655253L300.728397102229,107.57747554548698L300.3609723061703,107.29823552560401L300.26911610715575,107.14310218122463L300.3058585867616,106.95694216796932L300.39771478577626,106.63116214477259L300.37934354597337,106.44500213151733L299.99354751011185,106.0261421016929L299.7914638722796,105.74690208180999L299.7914638722796,105.52971539967882L299.86494883149135,105.37458205529938L299.7179789130679,105.1418820387303L299.7914638722796,104.98674869435092L299.88332007129424,104.84712868440943L299.938433790703,104.66096867115411L299.9751762703089,104.4592953234609L299.95680503050596,104.27313531020565L299.8465775916884,103.97838195588474L299.699607673265,103.73016860487769L299.5710089946445,103.45092858499478L299.5342665150386,103.0475818896083L299.5710089946445,102.7218018664116L299.6628651936591,102.47358851540451L299.699607673265,102.22537516439746L299.6261227140533,101.91510847563868L299.5893802344474,101.91510847563868L299.46078155582694,101.83754180344897L299.42403907622105,101.80651513457306L299.36892535681227,101.71343512794544L299.3505541170093,101.55830178356601L299.3138116374035,101.48073511137633L298.7810456831186,101.03084841267605L298.928015601542,100.73609505835518L299.3138116374035,100.28620835965492L299.55263775484156,99.8052949920787L299.699607673265,99.20027494899904L299.73635015287084,97.94369485952586L299.6261227140533,96.81122144555621L299.68123643346206,96.46992808792152L300.1772599081411,95.4615613494554L300.3242298265646,94.778974634186L300.4711997449879,94.49973461430307L300.76513958183483,94.37562793879957L300.80188206144066,94.31357460104778L300.37934354597337,93.89471457122337L300.3426010663674,93.66201455465429L300.25074486735286,93.56893454802665L300.1037749489294,93.5223945447128L299.95680503050596,93.41380120364721L299.73635015287084,93.11904784932636L299.64449395385617,92.79326782612961L299.6261227140533,92.06414110754639L299.5893802344474,91.89349442872904L299.442410316024,91.56771440553231L299.42403907622105,91.42809439559082L299.3505541170093,91.2109077134597L299.0566142801625,90.86961435582501L298.9831293209508,90.72999434588351L299.0749855199655,90.6369143392559L299.42403907622105,90.52832099819031L299.5342665150386,90.40421432268676L299.0382430403596,90.41972765712472L298.8361594025274,90.34216098493499L298.7626744433157,90.14048763724176L298.7626744433157,89.86124761735886L298.7259319637098,89.6595742696656L298.670818244301,89.48892759084828L298.5422195656805,89.3182809120309L298.17479476962194,89.05455422658594L297.99108237159265,88.86839421333065L297.8992261725781,88.6201808623236L297.93596865218393,88.4029941801924L297.9543398919868,88.10824082587155L297.93596865218393,87.81348747155067L297.60528633573125,87.42565411060215L297.0541491416434,87.13090075628128L296.2825570699204,86.9757674119019L295.6028211972121,86.7120407264569L295.36399507977404,86.13804735225312L295.67630615642383,85.56405397804932L296.3376707893292,85.12968061378695L297.7706274939576,84.44709389851758L299.24032667819176,83.39218715673763L301.8490427302075,80.83248697447743L303.8515078687266,78.19522012002756L304.4393875424204,76.84556002392671L304.51287250163205,75.44935992451207L303.8515078687266,74.05315982509742L303.79639414931785,73.75840647077655L304.20056142498237,73.5877597919592L306.07442788488095,73.30851977207627L308.79337137571423,72.88965974225187L311.2734887491095,72.51733971574129L314.58031191363654,72.02091301372718L314.83750927087743,71.97437301041336L319.00778070614217,71.33832629845782L323.1780521414067,70.71779292094016L326.3379053875103,70.23687955336402L330.37957814415444,69.61634617584642L333.06177915538177,69.21299948045993L333.46594643104623,70.70227958650224L334.25590974257216,72.2536130302963L335.2479566919302,73.69635313302476L336.3134886005,74.8133132125565L336.827883314982,75.21665990794295L337.4708767080845,75.58897993445353L338.1689838205958,75.83719328546056Z" class="country" style="fill: transparent; stroke-width: 2px; stroke: white;"/></svg>
